<?xml version="1.0"?>
<!DOCTYPE svg PUBLIC "//W3C//DTD SVG 1.0//EN" "http://www.w3.org/TR/2001/REC-SVG-20010904/DTD/svg10.dtd">
<svg version="1.1" id="newl" xmlns="http://www.w3.org/2000/svg" xmlns:xlink="http://www.w3.org/1999/xlink" x="0px" y="0px"
	 width="500px" height="500px" viewBox="0 0 500 500" enable-background="new 0 0 500 500" xml:space="preserve">
<path fill-rule="evenodd" clip-rule="evenodd" fill="none" stroke="#000000" stroke-width="2" stroke-miterlimit="10" d="M262,184
	v20"/>
<path fill-rule="evenodd" clip-rule="evenodd" fill="none" stroke="#000000" stroke-width="2" stroke-miterlimit="10" d="M242,186v9
	c0,0,1.069,4.538-8,7"/>
<path fill-rule="evenodd" clip-rule="evenodd" fill="none" stroke="#000000" stroke-width="2" stroke-miterlimit="10" d="M253,179
	l20,11"/>
<path fill-rule="evenodd" clip-rule="evenodd" fill="none" stroke="#000000" stroke-width="2" stroke-miterlimit="10" d="M251,179
	c0,0-9.951,8.798-21,10"/>
<path fill-rule="evenodd" clip-rule="evenodd" fill="none" stroke="#000000" stroke-width="2" stroke-miterlimit="10" d="M253,162
	v16"/>
<path fill-rule="evenodd" clip-rule="evenodd" fill="none" stroke="#000000" stroke-width="2" stroke-miterlimit="10" d="M237,170
	h32"/>
<path fill-rule="evenodd" clip-rule="evenodd" fill="none" stroke="#000000" stroke-width="2" stroke-miterlimit="10" d="M239,162
	h28c1.104,0,2,0.896,2,2v12c0,1.104-0.896,2-2,2h-28c-1.104,0-2-0.896-2-2v-12C237,162.896,237.896,162,239,162z"/>
<path fill-rule="evenodd" clip-rule="evenodd" fill="none" stroke="#000000" stroke-width="2" stroke-miterlimit="10" d="
	M268.16,111v31c0,1.104-0.896,2-2,2h-15.32c-1.104,0-2-0.896-2-2v-31"/>
<path fill-rule="evenodd" clip-rule="evenodd" fill="none" stroke="#000000" stroke-width="2" stroke-miterlimit="10" d="M275,155
	h-36c-2.209,0-4-1.791-4-4v-41"/>
<path fill-rule="evenodd" clip-rule="evenodd" fill="none" stroke="#000000" stroke-width="2" stroke-miterlimit="10" d="M230,121
	h44"/>
<path fill-rule="evenodd" clip-rule="evenodd" fill="none" stroke="#000000" stroke-width="2" stroke-miterlimit="10" d="M195,135
	l21,65"/>
<path fill-rule="evenodd" clip-rule="evenodd" fill="none" stroke="#000000" stroke-width="2" stroke-miterlimit="10" d="M214,127
	c0,0-5.17,50.582-20,73"/>
<path fill-rule="evenodd" clip-rule="evenodd" fill="none" stroke="#000000" stroke-width="2" stroke-miterlimit="10" d="M196,114
	l-1,13h22"/>
<path fill-rule="evenodd" clip-rule="evenodd" fill="none" stroke="#000000" stroke-width="2" stroke-miterlimit="10" d="M162,195
	l30-7"/>
<path fill-rule="evenodd" clip-rule="evenodd" fill="none" stroke="#000000" stroke-width="2" stroke-miterlimit="10" d="M168,173
	h17"/>
<path fill-rule="evenodd" clip-rule="evenodd" fill="none" stroke="#000000" stroke-width="2" stroke-miterlimit="10" d="M167,154
	h18"/>
<path fill-rule="evenodd" clip-rule="evenodd" fill="none" stroke="#000000" stroke-width="2" stroke-miterlimit="10" d="M186,135
	v68"/>
<path fill-rule="evenodd" clip-rule="evenodd" fill="none" stroke="#000000" stroke-width="2" stroke-miterlimit="10" d="M167,136
	v57"/>
<path fill-rule="evenodd" clip-rule="evenodd" fill="none" stroke="#000000" stroke-width="2" stroke-miterlimit="10" d="M162,135
	h29"/>
<path fill-rule="evenodd" clip-rule="evenodd" fill="none" stroke="#000000" stroke-width="2" stroke-miterlimit="10" d="M164,118
	h22l-2,17"/>
<path fill-rule="evenodd" clip-rule="evenodd" fill="none" stroke="#000000" stroke-width="2" stroke-miterlimit="10" d="
	M223.567,157.063c1.819,0,3.293,1.462,3.293,3.266s-1.475,3.266-3.293,3.266s-3.293-1.462-3.293-3.266
	S221.749,157.063,223.567,157.063z"/>
<path fill-rule="evenodd" clip-rule="evenodd" fill="none" stroke="#000000" stroke-width="2" stroke-miterlimit="10" d="
	M135.361,151.043c3.334,0,6.038,2.581,6.038,5.765c0,3.184-2.704,5.765-6.038,5.765s-6.038-2.581-6.038-5.765
	C129.324,153.625,132.027,151.043,135.361,151.043z"/>
<path fill-rule="evenodd" clip-rule="evenodd" fill="none" stroke="#000000" stroke-width="2" stroke-miterlimit="10" d="
	M138.812,146.103c7.622,0,13.8,5.899,13.8,13.176c0,7.277-6.178,13.177-13.8,13.177c-7.622,0-13.8-5.899-13.8-13.177
	C125.011,152.002,131.19,146.103,138.812,146.103z"/>
<path fill-rule="evenodd" clip-rule="evenodd" fill="none" stroke="#000000" stroke-width="2" stroke-miterlimit="10" d="
	M137.949,142.809c0-6.302,0-10.706,0-10.706c0-5.003,4.248-9.059,9.488-9.059c5.24,0,9.488,4.056,9.488,9.059v54.353
	c0,5.003-4.248,9.06-9.488,9.06c-5.24,0-9.488-4.056-9.488-9.06c0,0,0-4.694,0-11.323"/>
</svg>